{"title":"Bridesmaids 2011 TS - PRESTiGE","uid":6499831,"size":736221184,"categoryP":"video","categoryS":"movies","magnet":"?xt=urn:btih:b9d570d027d499410424c715e001389b07fa40c5&amp;dn=Bridesmaids+2011+TS+-+PRESTiGE&amp;tr=udp%3A%2F%2Ftracker.openbittorrent.com%3A80&amp;tr=udp%3A%2F%2Fopen.demonii.com%3A1337&amp;tr=udp%3A%2F%2Ftracker.coppersurfer.tk%3A6969&amp;tr=udp%3A%2F%2Fexodus.desync.com%3A6969","seeders":0,"leechers":1,"uploader":"sundox","files":1,"time":1309207099,"description":"File size : 702 MiB\nDuration : 1h 57mn\nOverall bit rate : 835 Kbps\n\n\nVideo\nID : 0\nFormat : MPEG-4 Visual\nFormat profile : Advanced Simple@L5\nFormat settings, BVOP : 2\nFormat settings, QPel : No\nFormat settings, GMC : No warppoints\nFormat settings, Matrix : Default (H.263)\nMuxing mode : Packed bitstream\nCodec ID : XVID\nCodec ID/Hint : XviD\nDuration : 1h 57mn\nBit rate : 697 Kbps\nWidth : 720 pixels\nHeight : 304 pixels\nDisplay aspect ratio : 2.35:1\nFrame rate : 25.000 fps\nColor space : YUV\nChroma subsampling : 4:2:0\nBit depth : 8 bits\nScan type : Progressive\nCompression mode : Lossy\nBits/(Pixel*Frame) : 0.127\nStream size : 586 MiB (84%)\nWriting library : XviD 1.2.0.dev47 (UTC 2006-11-01)\n\nAudio\nID : 1\nFormat : MPEG Audio\nFormat version : Version 1\nFormat profile : Layer 3\nMode : Joint stereo\nCodec ID : 55\nCodec ID/Hint : MP3\nDuration : 1h 57mn\nBit rate mode : Constant\nBit rate : 128 Kbps\nChannel(s) : 2 channels\nSampling rate : 44.1 KHz\nCompression mode : Lossy\nDelay relative to video : 26ms\nStream size : 108 MiB (15%)\nAlignment : Split accross interleaves\nInterleave, duration : 40 ms (1.00 video frame)\nInterleave, preload duration : 500 ms\n\n &lt;a href=&quot;\nhttp://www.imdb.com/title/tt1478338/&quot; rel=&quot;nofollow&quot; target=&quot;_NEW&quot;&gt;\nhttp://www.imdb.com/title/tt1478338/&lt;/a&gt;\n\n\n\n\nPicked as her best friend's maid of honor, lovelorn and broke Annie looks to bluff \nher way through the expensive and bizarre rituals with an oddball group of bridesmaids.\n\n\nmassive thanks to Imagine - respect to you guys \n\n:notes1: \n\nThere is a few seconds of audio missing but nothing major \nand it kicks straight back in ","torrent":{"xt":"urn:btih:b9d570d027d499410424c715e001389b07fa40c5","amp;dn":"Bridesmaids+2011+TS+-+PRESTiGE","amp;tr":["udp%3A%2F%2Ftracker.openbittorrent.com%3A80","udp%3A%2F%2Fopen.demonii.com%3A1337","udp%3A%2F%2Ftracker.coppersurfer.tk%3A6969","udp%3A%2F%2Fexodus.desync.com%3A6969"],"infoHash":"b9d570d027d499410424c715e001389b07fa40c5","infoHashBuffer":{"type":"Buffer","data":[185,213,112,208,39,212,153,65,4,36,199,21,224,1,56,155,7,250,64,197]},"announce":[],"urlList":[]}}